<mxfile host="app.diagrams.net" modified="2021-11-21T12:22:00.323Z" agent="5.0 (Windows NT 10.0; Win64; x64) AppleWebKit/537.36 (KHTML, like Gecko) Chrome/96.0.4664.45 Safari/537.36" etag="yF1cN8N6S-h7tL7DDECH" version="15.8.3" type="github">
  <diagram id="m2IPZ6RvF4Txl_1piE1s" name="Page-1">
    <mxGraphModel dx="813" dy="456" grid="1" gridSize="10" guides="1" tooltips="1" connect="1" arrows="1" fold="1" page="1" pageScale="1" pageWidth="850" pageHeight="1100" math="0" shadow="0">
      <root>
        <mxCell id="0" />
        <mxCell id="1" parent="0" />
        <mxCell id="QUHyGiF5Nh3ECNlTUKzT-5" style="edgeStyle=orthogonalEdgeStyle;rounded=0;orthogonalLoop=1;jettySize=auto;html=1;" edge="1" parent="1" source="QUHyGiF5Nh3ECNlTUKzT-1" target="QUHyGiF5Nh3ECNlTUKzT-4">
          <mxGeometry relative="1" as="geometry" />
        </mxCell>
        <mxCell id="QUHyGiF5Nh3ECNlTUKzT-1" value="Start" style="strokeWidth=2;html=1;shape=mxgraph.flowchart.start_1;whiteSpace=wrap;" vertex="1" parent="1">
          <mxGeometry x="375" y="20" width="100" height="60" as="geometry" />
        </mxCell>
        <mxCell id="QUHyGiF5Nh3ECNlTUKzT-7" style="edgeStyle=orthogonalEdgeStyle;rounded=0;orthogonalLoop=1;jettySize=auto;html=1;" edge="1" parent="1" source="QUHyGiF5Nh3ECNlTUKzT-4" target="QUHyGiF5Nh3ECNlTUKzT-6">
          <mxGeometry relative="1" as="geometry" />
        </mxCell>
        <mxCell id="QUHyGiF5Nh3ECNlTUKzT-4" value="Get X,Y,Z" style="shape=parallelogram;html=1;strokeWidth=2;perimeter=parallelogramPerimeter;whiteSpace=wrap;rounded=1;arcSize=12;size=0.23;" vertex="1" parent="1">
          <mxGeometry x="373" y="130" width="105" height="50" as="geometry" />
        </mxCell>
        <mxCell id="QUHyGiF5Nh3ECNlTUKzT-9" style="edgeStyle=orthogonalEdgeStyle;rounded=0;orthogonalLoop=1;jettySize=auto;html=1;" edge="1" parent="1" source="QUHyGiF5Nh3ECNlTUKzT-6" target="QUHyGiF5Nh3ECNlTUKzT-8">
          <mxGeometry relative="1" as="geometry" />
        </mxCell>
        <mxCell id="QUHyGiF5Nh3ECNlTUKzT-11" style="edgeStyle=orthogonalEdgeStyle;rounded=0;orthogonalLoop=1;jettySize=auto;html=1;" edge="1" parent="1" source="QUHyGiF5Nh3ECNlTUKzT-6" target="QUHyGiF5Nh3ECNlTUKzT-14">
          <mxGeometry relative="1" as="geometry">
            <mxPoint x="425" y="320" as="targetPoint" />
          </mxGeometry>
        </mxCell>
        <mxCell id="QUHyGiF5Nh3ECNlTUKzT-6" value="X &amp;gt; Y" style="strokeWidth=2;html=1;shape=mxgraph.flowchart.decision;whiteSpace=wrap;" vertex="1" parent="1">
          <mxGeometry x="382" y="220" width="87" height="60" as="geometry" />
        </mxCell>
        <mxCell id="QUHyGiF5Nh3ECNlTUKzT-18" style="edgeStyle=orthogonalEdgeStyle;rounded=0;orthogonalLoop=1;jettySize=auto;html=1;" edge="1" parent="1" source="QUHyGiF5Nh3ECNlTUKzT-8" target="QUHyGiF5Nh3ECNlTUKzT-17">
          <mxGeometry relative="1" as="geometry" />
        </mxCell>
        <mxCell id="QUHyGiF5Nh3ECNlTUKzT-34" style="edgeStyle=orthogonalEdgeStyle;rounded=0;orthogonalLoop=1;jettySize=auto;html=1;" edge="1" parent="1" source="QUHyGiF5Nh3ECNlTUKzT-8" target="QUHyGiF5Nh3ECNlTUKzT-30">
          <mxGeometry relative="1" as="geometry">
            <Array as="points">
              <mxPoint x="585" y="560" />
            </Array>
          </mxGeometry>
        </mxCell>
        <mxCell id="QUHyGiF5Nh3ECNlTUKzT-8" value="Y &amp;gt; Z" style="strokeWidth=2;html=1;shape=mxgraph.flowchart.decision;whiteSpace=wrap;" vertex="1" parent="1">
          <mxGeometry x="540" y="220" width="90" height="60" as="geometry" />
        </mxCell>
        <mxCell id="QUHyGiF5Nh3ECNlTUKzT-12" value="Yes" style="text;html=1;strokeColor=none;fillColor=none;align=center;verticalAlign=middle;whiteSpace=wrap;rounded=0;" vertex="1" parent="1">
          <mxGeometry x="469" y="220" width="60" height="30" as="geometry" />
        </mxCell>
        <mxCell id="QUHyGiF5Nh3ECNlTUKzT-13" value="No" style="text;html=1;strokeColor=none;fillColor=none;align=center;verticalAlign=middle;whiteSpace=wrap;rounded=0;" vertex="1" parent="1">
          <mxGeometry x="365" y="280" width="60" height="30" as="geometry" />
        </mxCell>
        <mxCell id="QUHyGiF5Nh3ECNlTUKzT-21" style="edgeStyle=orthogonalEdgeStyle;rounded=0;orthogonalLoop=1;jettySize=auto;html=1;" edge="1" parent="1" source="QUHyGiF5Nh3ECNlTUKzT-14" target="QUHyGiF5Nh3ECNlTUKzT-15">
          <mxGeometry relative="1" as="geometry" />
        </mxCell>
        <mxCell id="QUHyGiF5Nh3ECNlTUKzT-27" style="edgeStyle=orthogonalEdgeStyle;rounded=0;orthogonalLoop=1;jettySize=auto;html=1;" edge="1" parent="1" source="QUHyGiF5Nh3ECNlTUKzT-14" target="QUHyGiF5Nh3ECNlTUKzT-20">
          <mxGeometry relative="1" as="geometry" />
        </mxCell>
        <mxCell id="QUHyGiF5Nh3ECNlTUKzT-14" value="X &amp;lt; Y" style="strokeWidth=2;html=1;shape=mxgraph.flowchart.decision;whiteSpace=wrap;" vertex="1" parent="1">
          <mxGeometry x="380.5" y="320" width="90" height="60" as="geometry" />
        </mxCell>
        <mxCell id="QUHyGiF5Nh3ECNlTUKzT-25" style="edgeStyle=orthogonalEdgeStyle;rounded=0;orthogonalLoop=1;jettySize=auto;html=1;" edge="1" parent="1" source="QUHyGiF5Nh3ECNlTUKzT-15" target="QUHyGiF5Nh3ECNlTUKzT-24">
          <mxGeometry relative="1" as="geometry" />
        </mxCell>
        <mxCell id="QUHyGiF5Nh3ECNlTUKzT-33" style="edgeStyle=orthogonalEdgeStyle;rounded=0;orthogonalLoop=1;jettySize=auto;html=1;" edge="1" parent="1" source="QUHyGiF5Nh3ECNlTUKzT-15" target="QUHyGiF5Nh3ECNlTUKzT-30">
          <mxGeometry relative="1" as="geometry">
            <Array as="points">
              <mxPoint x="585" y="560" />
            </Array>
          </mxGeometry>
        </mxCell>
        <mxCell id="QUHyGiF5Nh3ECNlTUKzT-15" value="Y &amp;lt; Z" style="strokeWidth=2;html=1;shape=mxgraph.flowchart.decision;whiteSpace=wrap;" vertex="1" parent="1">
          <mxGeometry x="540" y="320" width="90" height="60" as="geometry" />
        </mxCell>
        <mxCell id="QUHyGiF5Nh3ECNlTUKzT-43" style="edgeStyle=orthogonalEdgeStyle;rounded=0;orthogonalLoop=1;jettySize=auto;html=1;" edge="1" parent="1" source="QUHyGiF5Nh3ECNlTUKzT-17" target="QUHyGiF5Nh3ECNlTUKzT-39">
          <mxGeometry relative="1" as="geometry">
            <Array as="points">
              <mxPoint x="820" y="250" />
              <mxPoint x="820" y="620" />
            </Array>
          </mxGeometry>
        </mxCell>
        <mxCell id="QUHyGiF5Nh3ECNlTUKzT-17" value="Descending" style="strokeWidth=2;html=1;shape=mxgraph.flowchart.display;whiteSpace=wrap;" vertex="1" parent="1">
          <mxGeometry x="700" y="220" width="100" height="60" as="geometry" />
        </mxCell>
        <mxCell id="QUHyGiF5Nh3ECNlTUKzT-19" value="Yes" style="text;html=1;strokeColor=none;fillColor=none;align=center;verticalAlign=middle;whiteSpace=wrap;rounded=0;" vertex="1" parent="1">
          <mxGeometry x="630" y="220" width="60" height="30" as="geometry" />
        </mxCell>
        <mxCell id="QUHyGiF5Nh3ECNlTUKzT-29" style="edgeStyle=orthogonalEdgeStyle;rounded=0;orthogonalLoop=1;jettySize=auto;html=1;" edge="1" parent="1" source="QUHyGiF5Nh3ECNlTUKzT-20" target="QUHyGiF5Nh3ECNlTUKzT-28">
          <mxGeometry relative="1" as="geometry" />
        </mxCell>
        <mxCell id="QUHyGiF5Nh3ECNlTUKzT-32" style="edgeStyle=orthogonalEdgeStyle;rounded=0;orthogonalLoop=1;jettySize=auto;html=1;" edge="1" parent="1" source="QUHyGiF5Nh3ECNlTUKzT-20" target="QUHyGiF5Nh3ECNlTUKzT-30">
          <mxGeometry relative="1" as="geometry" />
        </mxCell>
        <mxCell id="QUHyGiF5Nh3ECNlTUKzT-20" value="X = Y = Z" style="strokeWidth=2;html=1;shape=mxgraph.flowchart.decision;whiteSpace=wrap;" vertex="1" parent="1">
          <mxGeometry x="380" y="420" width="90" height="60" as="geometry" />
        </mxCell>
        <mxCell id="QUHyGiF5Nh3ECNlTUKzT-22" value="Yes" style="text;html=1;strokeColor=none;fillColor=none;align=center;verticalAlign=middle;whiteSpace=wrap;rounded=0;" vertex="1" parent="1">
          <mxGeometry x="469" y="320" width="60" height="30" as="geometry" />
        </mxCell>
        <mxCell id="QUHyGiF5Nh3ECNlTUKzT-23" value="Yes" style="text;html=1;strokeColor=none;fillColor=none;align=center;verticalAlign=middle;whiteSpace=wrap;rounded=0;" vertex="1" parent="1">
          <mxGeometry x="630" y="320" width="60" height="30" as="geometry" />
        </mxCell>
        <mxCell id="QUHyGiF5Nh3ECNlTUKzT-42" style="edgeStyle=orthogonalEdgeStyle;rounded=0;orthogonalLoop=1;jettySize=auto;html=1;" edge="1" parent="1" source="QUHyGiF5Nh3ECNlTUKzT-24" target="QUHyGiF5Nh3ECNlTUKzT-39">
          <mxGeometry relative="1" as="geometry">
            <Array as="points">
              <mxPoint x="820" y="350" />
              <mxPoint x="820" y="620" />
            </Array>
          </mxGeometry>
        </mxCell>
        <mxCell id="QUHyGiF5Nh3ECNlTUKzT-24" value="Descending" style="strokeWidth=2;html=1;shape=mxgraph.flowchart.display;whiteSpace=wrap;" vertex="1" parent="1">
          <mxGeometry x="700" y="320" width="100" height="60" as="geometry" />
        </mxCell>
        <mxCell id="QUHyGiF5Nh3ECNlTUKzT-26" value="No" style="text;html=1;strokeColor=none;fillColor=none;align=center;verticalAlign=middle;whiteSpace=wrap;rounded=0;" vertex="1" parent="1">
          <mxGeometry x="365" y="380" width="60" height="30" as="geometry" />
        </mxCell>
        <mxCell id="QUHyGiF5Nh3ECNlTUKzT-41" style="edgeStyle=orthogonalEdgeStyle;rounded=0;orthogonalLoop=1;jettySize=auto;html=1;" edge="1" parent="1" source="QUHyGiF5Nh3ECNlTUKzT-28" target="QUHyGiF5Nh3ECNlTUKzT-39">
          <mxGeometry relative="1" as="geometry">
            <Array as="points">
              <mxPoint x="820" y="450" />
              <mxPoint x="820" y="620" />
            </Array>
          </mxGeometry>
        </mxCell>
        <mxCell id="QUHyGiF5Nh3ECNlTUKzT-28" value="Uniform" style="strokeWidth=2;html=1;shape=mxgraph.flowchart.display;whiteSpace=wrap;" vertex="1" parent="1">
          <mxGeometry x="700" y="420" width="100" height="60" as="geometry" />
        </mxCell>
        <mxCell id="QUHyGiF5Nh3ECNlTUKzT-40" style="edgeStyle=orthogonalEdgeStyle;rounded=0;orthogonalLoop=1;jettySize=auto;html=1;" edge="1" parent="1" source="QUHyGiF5Nh3ECNlTUKzT-30" target="QUHyGiF5Nh3ECNlTUKzT-39">
          <mxGeometry relative="1" as="geometry">
            <Array as="points">
              <mxPoint x="426" y="620" />
            </Array>
          </mxGeometry>
        </mxCell>
        <mxCell id="QUHyGiF5Nh3ECNlTUKzT-30" value="UnSorted" style="strokeWidth=2;html=1;shape=mxgraph.flowchart.display;whiteSpace=wrap;" vertex="1" parent="1">
          <mxGeometry x="375.5" y="530" width="100" height="60" as="geometry" />
        </mxCell>
        <mxCell id="QUHyGiF5Nh3ECNlTUKzT-35" value="No" style="text;html=1;strokeColor=none;fillColor=none;align=center;verticalAlign=middle;whiteSpace=wrap;rounded=0;" vertex="1" parent="1">
          <mxGeometry x="365" y="480" width="60" height="30" as="geometry" />
        </mxCell>
        <mxCell id="QUHyGiF5Nh3ECNlTUKzT-36" value="No" style="text;html=1;strokeColor=none;fillColor=none;align=center;verticalAlign=middle;whiteSpace=wrap;rounded=0;" vertex="1" parent="1">
          <mxGeometry x="529" y="380" width="60" height="30" as="geometry" />
        </mxCell>
        <mxCell id="QUHyGiF5Nh3ECNlTUKzT-37" value="No" style="text;html=1;strokeColor=none;fillColor=none;align=center;verticalAlign=middle;whiteSpace=wrap;rounded=0;" vertex="1" parent="1">
          <mxGeometry x="529" y="280" width="60" height="30" as="geometry" />
        </mxCell>
        <mxCell id="QUHyGiF5Nh3ECNlTUKzT-39" value="Stop" style="strokeWidth=2;html=1;shape=mxgraph.flowchart.start_1;whiteSpace=wrap;" vertex="1" parent="1">
          <mxGeometry x="600" y="510" width="100" height="60" as="geometry" />
        </mxCell>
      </root>
    </mxGraphModel>
  </diagram>
</mxfile>
